<svg width="291" height="159" viewBox="0 0 291 159" fill="none" xmlns="http://www.w3.org/2000/svg">
<path d="M20.448 28.512C19.056 29.04 17.808 29.472 16.32 29.472C14.064 29.472 12.672 28.368 12.672 25.968V19.392H20.592V12.72H12.672V4.8H4.896V12.72H0.336V19.392H4.896V26.208C4.896 32.496 8.736 36.624 15.072 36.624C16.416 36.624 18.912 36.48 21.312 35.472L20.448 28.512ZM41.0269 12.336C37.5709 12.336 35.0749 13.44 33.0109 15.216V12.72H25.1869V36H33.0109V22.656C34.8349 20.88 37.2349 19.872 41.0269 19.728V12.336ZM61.0673 12.72V13.92C59.3393 12.768 57.2753 12.096 54.6833 12.096C48.3953 12.096 43.1152 17.376 43.1152 24.336C43.1152 31.248 48.3953 36.624 54.6833 36.624C57.2753 36.624 59.3393 35.904 61.0673 34.752V36H68.8433V12.72H61.0673ZM56.2673 30C53.0993 30 50.7473 27.552 50.7473 24.336C50.7473 21.12 53.0993 18.672 56.2673 18.672C57.9473 18.672 59.5793 19.104 61.0673 20.736V27.936C59.5793 29.568 57.9473 30 56.2673 30ZM79.4524 28.032L72.5404 27.984C73.0684 34.176 78.0124 36.624 84.0124 36.624C90.1084 36.624 94.9084 34.224 94.9084 28.848C94.9084 24.72 91.9804 22.608 87.6604 21.792L83.3404 21.072C81.4684 20.736 80.8924 20.016 80.8924 19.2C80.8924 18.336 81.8044 17.616 83.8204 17.616C85.9804 17.616 87.6604 18.384 87.8044 20.112H94.6684C94.3324 13.968 89.3404 12.096 83.8204 12.096C77.6284 12.096 73.4524 14.976 73.4524 19.872C73.4524 23.952 76.2844 26.208 80.2684 26.88L84.9724 27.696C86.5084 27.936 87.4204 28.512 87.4204 29.328C87.4204 30.336 86.1244 30.912 84.0604 30.912C81.6124 30.912 79.7884 30.048 79.4524 28.032ZM113.364 12.096C110.868 12.096 108.852 12.864 106.98 14.256V1.92H99.1556V36H106.98V21.36C108.324 19.872 109.812 19.152 111.204 19.152C113.796 19.152 115.476 20.64 115.476 23.952V36H123.252V22.704C123.252 16.08 119.22 12.096 113.364 12.096ZM139.791 12.096C132.399 12.096 126.975 17.328 126.975 24.336C126.975 31.44 132.399 36.624 139.791 36.624C147.135 36.624 152.559 31.44 152.559 24.336C152.559 17.328 147.135 12.096 139.791 12.096ZM139.791 30.048C136.527 30.048 134.367 27.648 134.367 24.384C134.367 21.216 136.527 18.672 139.791 18.672C143.007 18.672 145.167 21.216 145.167 24.384C145.167 27.648 143.007 30.048 139.791 30.048ZM167.148 11.376C167.148 9.024 168.684 7.536 171.18 7.536C172.188 7.536 173.58 7.872 174.732 8.256L175.788 1.776C173.388 1.152 171.756 0.863997 169.884 0.863997C163.932 0.863997 159.372 4.608 159.372 11.376V12.72H153.66V19.392H159.372V36H167.148V19.392H175.356V12.72H167.148V11.376ZM187.07 11.376C187.07 9.024 188.606 7.536 191.102 7.536C192.11 7.536 193.502 7.872 194.654 8.256L195.71 1.776C193.31 1.152 191.678 0.863997 189.806 0.863997C183.854 0.863997 179.294 4.608 179.294 11.376V12.72H173.582V19.392H179.294V36H187.07V19.392H195.278V12.72H187.07V11.376ZM212.875 27.024V20.208H230.203V27.024H212.875ZM14.352 91C10.992 91 9.024 88.504 9.024 85.336C9.024 82.168 10.992 79.672 14.352 79.672C16.704 79.672 18.528 81.16 18.912 83.272H26.256C25.68 77.272 20.736 73.096 14.304 73.096C7.008 73.096 1.584 78.28 1.584 85.336C1.584 92.44 7.008 97.576 14.304 97.576C20.736 97.576 25.68 93.448 26.256 87.448H18.912C18.528 89.56 16.704 91 14.352 91ZM42.2438 73.096C34.8518 73.096 29.4277 78.328 29.4277 85.336C29.4277 92.44 34.8518 97.624 42.2438 97.624C49.5878 97.624 55.0118 92.44 55.0118 85.336C55.0118 78.328 49.5878 73.096 42.2438 73.096ZM42.2438 91.048C38.9798 91.048 36.8198 88.648 36.8198 85.384C36.8198 82.216 38.9798 79.672 42.2438 79.672C45.4598 79.672 47.6198 82.216 47.6198 85.384C47.6198 88.648 45.4598 91.048 42.2438 91.048ZM87.7883 73.096C84.3323 73.096 81.9803 74.008 79.4843 76.168C77.7563 74.2 75.2603 73.096 72.3323 73.096C69.7883 73.096 68.1562 73.768 66.6203 75.064V73.72H58.7963V97H66.6203V82.072C67.7243 80.68 68.9243 80.152 70.0763 80.152C72.6203 80.152 74.2523 81.64 74.2523 84.952V97H82.0283V83.704C82.0283 83.128 81.9803 82.552 81.9323 82.024C83.0843 80.632 84.2843 80.152 85.4843 80.152C88.0283 80.152 89.6603 81.64 89.6603 84.952V97H97.4363V83.704C97.4363 77.08 93.3563 73.096 87.7883 73.096ZM113.429 72.376C113.429 70.024 114.965 68.536 117.461 68.536C118.469 68.536 119.861 68.872 121.013 69.256L122.069 62.776C119.669 62.152 118.037 61.864 116.165 61.864C110.213 61.864 105.653 65.608 105.653 72.376V73.72H99.9409V80.392H105.653V97H113.429V80.392H121.637V73.72H113.429V72.376ZM135.853 73.096C128.461 73.096 123.037 78.328 123.037 85.336C123.037 92.44 128.461 97.624 135.853 97.624C143.197 97.624 148.621 92.44 148.621 85.336C148.621 78.328 143.197 73.096 135.853 73.096ZM135.853 91.048C132.589 91.048 130.429 88.648 130.429 85.384C130.429 82.216 132.589 79.672 135.853 79.672C139.069 79.672 141.229 82.216 141.229 85.384C141.229 88.648 139.069 91.048 135.853 91.048ZM168.246 73.336C164.79 73.336 162.294 74.44 160.23 76.216V73.72H152.406V97H160.23V83.656C162.054 81.88 164.454 80.872 168.246 80.728V73.336ZM190.229 89.512C188.837 90.04 187.589 90.472 186.101 90.472C183.845 90.472 182.453 89.368 182.453 86.968V80.392H190.373V73.72H182.453V65.8H174.677V73.72H170.117V80.392H174.677V87.208C174.677 93.496 178.517 97.624 184.853 97.624C186.197 97.624 188.693 97.48 191.093 96.472L190.229 89.512ZM211.114 73.72V74.92C209.386 73.768 207.322 73.096 204.73 73.096C198.442 73.096 193.162 78.376 193.162 85.336C193.162 92.248 198.442 97.624 204.73 97.624C207.322 97.624 209.386 96.904 211.114 95.752V97H218.89V73.72H211.114ZM206.314 91C203.146 91 200.794 88.552 200.794 85.336C200.794 82.12 203.146 79.672 206.314 79.672C207.994 79.672 209.626 80.104 211.114 81.736V88.936C209.626 90.568 207.994 91 206.314 91ZM238.331 73.192C235.787 73.192 233.723 73.864 231.995 74.968V62.92H224.171V97H231.995V95.848C233.723 96.952 235.787 97.624 238.331 97.624C244.619 97.624 249.899 92.344 249.899 85.384C249.899 78.472 244.619 73.192 238.331 73.192ZM236.795 91.096C235.115 91.096 233.435 90.664 231.995 89.08V81.784C233.435 80.2 235.115 79.768 236.795 79.768C239.963 79.768 242.267 82.216 242.267 85.384C242.267 88.648 239.963 91.096 236.795 91.096ZM253.984 62.92V97H261.808V62.92H253.984ZM290.2 84.568C290.2 77.512 285.016 73.096 278.056 73.096C270.856 73.096 265.912 78.28 265.912 85.336C265.912 92.44 271 97.624 278.632 97.624C284.104 97.624 288.424 94.792 289.816 90.232H281.944C281.224 91.096 280.216 91.48 278.488 91.48C275.32 91.48 273.736 89.608 273.208 87.208H290.056C290.2 86.296 290.2 85.48 290.2 84.568ZM278.248 78.856C280.888 78.856 282.568 80.008 282.952 82.744H273.304C273.928 80.392 275.512 78.856 278.248 78.856ZM14.4 134.096C7.008 134.096 1.584 139.328 1.584 146.336C1.584 153.44 7.008 158.624 14.4 158.624C21.744 158.624 27.168 153.44 27.168 146.336C27.168 139.328 21.744 134.096 14.4 134.096ZM14.4 152.048C11.136 152.048 8.976 149.648 8.976 146.384C8.976 143.216 11.136 140.672 14.4 140.672C17.616 140.672 19.776 143.216 19.776 146.384C19.776 149.648 17.616 152.048 14.4 152.048ZM41.757 133.376C41.757 131.024 43.293 129.536 45.789 129.536C46.797 129.536 48.189 129.872 49.341 130.256L50.397 123.776C47.997 123.152 46.365 122.864 44.493 122.864C38.541 122.864 33.981 126.608 33.981 133.376V134.72H28.269V141.392H33.981V158H41.757V141.392H49.965V134.72H41.757V133.376ZM72.5269 123.92V134.72H61.6789V133.376C61.6789 131.024 63.2149 129.536 65.7109 129.536C66.7189 129.536 68.1109 129.872 69.2629 130.256L70.3189 123.776C67.9189 123.152 66.2869 122.864 64.4149 122.864C58.4629 122.864 53.9029 126.608 53.9029 133.376V134.72H48.1909V141.392H53.9029V158H61.6789V141.392H72.5269V158H80.3509V123.92H72.5269ZM90.1688 131.072C92.6648 131.072 94.7288 129.2 94.7288 126.704C94.7288 124.16 92.6648 122.288 90.1688 122.288C87.6248 122.288 85.6088 124.16 85.6088 126.704C85.6088 129.2 87.6248 131.072 90.1688 131.072ZM86.3288 134.72V158H94.1048V134.72H86.3288ZM114.254 134.096C111.758 134.096 109.742 134.864 107.87 136.256V134.72H100.046V158H107.87V143.36C109.214 141.872 110.702 141.152 112.094 141.152C114.686 141.152 116.366 142.64 116.366 145.952V158H124.142V144.704C124.142 138.08 120.11 134.096 114.254 134.096ZM152.153 145.568C152.153 138.512 146.969 134.096 140.009 134.096C132.809 134.096 127.865 139.28 127.865 146.336C127.865 153.44 132.953 158.624 140.585 158.624C146.057 158.624 150.377 155.792 151.769 151.232H143.897C143.177 152.096 142.169 152.48 140.441 152.48C137.273 152.48 135.689 150.608 135.161 148.208H152.009C152.153 147.296 152.153 146.48 152.153 145.568ZM140.201 139.856C142.841 139.856 144.521 141.008 144.905 143.744H135.257C135.881 141.392 137.465 139.856 140.201 139.856Z" fill="#63EA76"/>
</svg>
